<svg width="178" height="101" viewBox="0 0 178 101" fill="none" xmlns="http://www.w3.org/2000/svg">
<path fill-rule="evenodd" clip-rule="evenodd" d="M107.834 11.324L122.174 10L124.84 38.8773L116.026 39.691C114.12 51.0025 106.628 60.4171 96.4846 65H107.5L107.224 67.3757L114.382 65L126.33 101H105.368L103.847 96.4163L103.314 101H54.8489L53.97 91.5518L49.2981 101H31.4487L48.0476 67.432L51.9038 69.3387L51.5 65H68.5154C60.2417 61.2617 53.732 54.3084 50.5789 45.733L48.166 45.9558L47.0535 33.9058C30.9629 38.2122 2.1697 56.6752 3.01857 101H0.0179637C-0.846782 54.6205 29.7169 35.2295 46.7742 30.8785L45.5 17.0786L53.437 16.3458C59.4031 6.54504 70.1873 0 82.5 0C92.5652 0 101.609 4.37354 107.834 11.324ZM177.299 101C177.43 100.195 177.5 99.3586 177.5 98.5C177.5 92.1487 173.695 87 169 87C164.306 87 160.5 92.1487 160.5 98.5C160.5 99.3586 160.57 100.195 160.701 101H177.299ZM153.825 101C154.26 99.6179 154.5 98.0969 154.5 96.5C154.5 90.1487 150.695 85 146 85C141.306 85 137.5 90.1487 137.5 96.5C137.5 98.0969 137.74 99.6179 138.175 101H153.825Z" fill="#282828"/>
</svg>
